<svg width="24" height="24" viewBox="0 0 24 24" fill="none" xmlns="http://www.w3.org/2000/svg">
<path d="M17.3125 2H6.6875C4.09867 2 2 4.09867 2 6.6875V17.3125C2 19.9013 4.09867 22 6.6875 22H17.3125C19.9013 22 22 19.9013 22 17.3125V6.6875C22 4.09867 19.9013 2 17.3125 2Z" fill="url(#paint0_radial_5_5506)"/>
<path d="M17.3125 2H6.6875C4.09867 2 2 4.09867 2 6.6875V17.3125C2 19.9013 4.09867 22 6.6875 22H17.3125C19.9013 22 22 19.9013 22 17.3125V6.6875C22 4.09867 19.9013 2 17.3125 2Z" fill="url(#paint1_radial_5_5506)"/>
<path d="M12.0007 4.1875C9.87898 4.1875 9.61266 4.1968 8.77938 4.23469C7.94766 4.27281 7.37992 4.40445 6.8832 4.59766C6.3693 4.79719 5.93344 5.06414 5.49922 5.49852C5.06461 5.93281 4.79766 6.36867 4.5975 6.88234C4.40375 7.37922 4.27195 7.94719 4.23453 8.77852C4.19727 9.61188 4.1875 9.87828 4.1875 12.0001C4.1875 14.1219 4.19688 14.3873 4.23469 15.2206C4.27297 16.0523 4.40461 16.6201 4.59766 17.1168C4.79734 17.6307 5.0643 18.0666 5.49867 18.5008C5.93281 18.9354 6.36867 19.203 6.88219 19.4025C7.3793 19.5957 7.94711 19.7273 8.77867 19.7655C9.61203 19.8034 9.87813 19.8127 11.9998 19.8127C14.1217 19.8127 14.3872 19.8034 15.2205 19.7655C16.0522 19.7273 16.6205 19.5957 17.1177 19.4025C17.6313 19.203 18.0666 18.9354 18.5006 18.5008C18.9352 18.0666 19.2021 17.6307 19.4023 17.117C19.5944 16.6201 19.7262 16.0522 19.7653 15.2208C19.8027 14.3875 19.8125 14.1219 19.8125 12.0001C19.8125 9.87828 19.8027 9.61203 19.7653 8.77867C19.7262 7.94695 19.5944 7.3793 19.4023 6.88258C19.2021 6.36867 18.9352 5.93281 18.5006 5.49852C18.0661 5.06398 17.6315 4.79703 17.1172 4.59773C16.6191 4.40445 16.0511 4.27273 15.2194 4.23469C14.386 4.1968 14.1207 4.1875 11.9983 4.1875H12.0007ZM11.2998 5.59539C11.5079 5.59508 11.74 5.59539 12.0007 5.59539C14.0867 5.59539 14.3339 5.60289 15.1577 5.64031C15.9194 5.67516 16.3328 5.80242 16.6082 5.90938C16.9728 6.05094 17.2327 6.22023 17.506 6.49375C17.7795 6.76719 17.9487 7.02758 18.0906 7.39219C18.1976 7.66719 18.325 8.08063 18.3597 8.84234C18.3971 9.66594 18.4052 9.91328 18.4052 11.9983C18.4052 14.0833 18.3971 14.3307 18.3597 15.1542C18.3248 15.9159 18.1976 16.3294 18.0906 16.6045C17.9491 16.9691 17.7795 17.2287 17.506 17.502C17.2326 17.7754 16.973 17.9446 16.6082 18.0863C16.3331 18.1937 15.9194 18.3206 15.1577 18.3555C14.3341 18.3929 14.0867 18.401 12.0007 18.401C9.91461 18.401 9.66734 18.3929 8.84383 18.3555C8.08211 18.3203 7.66867 18.193 7.39305 18.0861C7.02852 17.9445 6.76805 17.7752 6.49461 17.5018C6.22117 17.2284 6.05195 16.9686 5.91 16.6038C5.80305 16.3287 5.67562 15.9153 5.64094 15.1536C5.60352 14.33 5.59602 14.0827 5.59602 11.9963C5.59602 9.91008 5.60352 9.66398 5.64094 8.84039C5.67578 8.07867 5.80305 7.66523 5.91 7.38984C6.05164 7.02523 6.22117 6.76484 6.49469 6.49141C6.76813 6.21797 7.02852 6.04867 7.39312 5.9068C7.66852 5.79938 8.08211 5.67242 8.84383 5.63742C9.56453 5.60484 9.84383 5.59508 11.2998 5.59344V5.59539ZM16.171 6.89258C15.6534 6.89258 15.2335 7.31211 15.2335 7.82977C15.2335 8.34734 15.6534 8.76727 16.171 8.76727C16.6886 8.76727 17.1085 8.34734 17.1085 7.82977C17.1085 7.31219 16.6886 6.89227 16.171 6.89227V6.89258ZM12.0007 7.98797C9.78508 7.98797 7.98867 9.78438 7.98867 12.0001C7.98867 14.2158 9.78508 16.0113 12.0007 16.0113C14.2164 16.0113 16.0122 14.2158 16.0122 12.0001C16.0122 9.78445 14.2163 7.98797 12.0005 7.98797H12.0007ZM12.0007 9.39586C13.4389 9.39586 14.6049 10.5617 14.6049 12.0001C14.6049 13.4383 13.4389 14.6043 12.0007 14.6043C10.5624 14.6043 9.39656 13.4383 9.39656 12.0001C9.39656 10.5617 10.5624 9.39586 12.0007 9.39586Z" fill="white"/>
<defs>
<radialGradient id="paint0_radial_5_5506" cx="0" cy="0" r="1" gradientUnits="userSpaceOnUse" gradientTransform="translate(7.3125 23.5404) rotate(-90) scale(19.8215 18.4355)">
<stop stop-color="#FFDD55"/>
<stop offset="0.1" stop-color="#FFDD55"/>
<stop offset="0.5" stop-color="#FF543E"/>
<stop offset="1" stop-color="#C837AB"/>
</radialGradient>
<radialGradient id="paint1_radial_5_5506" cx="0" cy="0" r="1" gradientUnits="userSpaceOnUse" gradientTransform="translate(-1.35008 3.4407) rotate(78.681) scale(8.86031 36.5225)">
<stop stop-color="#3771C8"/>
<stop offset="0.128" stop-color="#3771C8"/>
<stop offset="1" stop-color="#6600FF" stop-opacity="0"/>
</radialGradient>
</defs>
</svg>
