<svg width="24" height="24" viewBox="0 0 24 24" fill="none" xmlns="http://www.w3.org/2000/svg">
<path d="M20.8 2H3.2C2.53726 2 2 2.53726 2 3.2V20.8C2 21.4627 2.53726 22 3.2 22H20.8C21.4627 22 22 21.4627 22 20.8V3.2C22 2.53726 21.4627 2 20.8 2Z" fill="#61B2E4"/>
<path d="M5.59961 9.6001H7.99961V18.0001H5.59961V9.6001Z" fill="white"/>
<path d="M6.79941 7.8C7.57261 7.8 8.19941 7.1732 8.19941 6.4C8.19941 5.6268 7.57261 5 6.79941 5C6.02622 5 5.39941 5.6268 5.39941 6.4C5.39941 7.1732 6.02622 7.8 6.79941 7.8Z" fill="white"/>
<path d="M14.5996 11.5999C13.716 11.5999 12.9996 12.0671 12.9996 13.3999V17.9999H10.5996V9.5999H12.9996V10.4839H12.9988C13.2988 10.1428 13.6682 9.86964 14.0822 9.6827C14.4962 9.49577 14.9453 9.39935 15.3996 9.3999C17.1668 9.3999 18.5996 10.7199 18.5996 12.9999V17.9999H16.1996V13.3999C16.1996 12.0671 15.4836 11.5999 14.5996 11.5999Z" fill="white"/>
</svg>
