<svg width="24" height="24" viewBox="0 0 24 24" fill="none" xmlns="http://www.w3.org/2000/svg">
<path d="M16.7876 4.43925C17.9286 5.28392 18.7226 6.50092 18.9352 8.04925C19.0216 8.67125 19.0389 9.30058 18.9919 9.91792C18.8796 11.3946 18.3986 12.8106 17.6026 13.9056C16.7976 15.0122 15.6726 15.7933 14.2796 15.9859C13.9224 16.035 13.5609 16.0453 13.2016 16.0166H13.2009C12.3629 15.9499 11.8966 15.6266 11.3509 15.2482C11.2451 15.1745 11.1354 15.0998 11.0219 15.0243C10.8052 16.1329 10.5589 17.2132 10.1829 18.1692C9.76956 19.2209 9.19956 20.1209 8.34423 20.7429L8.09089 20.9269L8.04756 20.6162C7.66823 17.9236 8.25389 15.7369 8.82289 13.6119C9.01956 12.8782 9.21389 12.1519 9.36256 11.4286C9.02589 10.8202 8.93756 10.0252 9.05256 9.27425C9.13423 8.74192 9.31823 8.22825 9.58856 7.81525C9.86689 7.38958 10.2389 7.06858 10.6886 6.93692C11.0369 6.83525 11.4259 6.84825 11.8469 7.01492V7.01592C13.2429 7.56925 12.7556 9.09858 12.2686 10.6269C12.1152 11.1072 11.9626 11.5876 11.8729 12.0352C11.6936 12.9326 11.7966 13.6652 12.8082 13.8673V13.8679C13.3742 13.9826 13.8792 13.8759 14.3146 13.6129C14.9136 13.2512 15.3879 12.5936 15.7152 11.8046C16.0479 11.0022 16.2272 10.0689 16.2319 9.17092C16.2379 7.98625 15.9412 6.86925 15.2932 6.21158C14.5642 5.47192 13.6666 5.10225 12.7436 5.03025C11.8529 4.96092 10.9376 5.16725 10.1249 5.58592C9.31056 6.00492 8.60023 6.63558 8.11989 7.41358C7.60189 8.25325 7.35223 9.26625 7.53089 10.3719C7.58456 10.7056 7.74523 10.9702 7.89923 11.2242C8.24023 11.7866 8.55456 12.3049 7.95289 13.3709L7.88456 13.4922L7.74889 13.4622C6.80256 13.2529 6.16023 12.7942 5.74956 12.1472C5.34523 11.5109 5.17223 10.6976 5.15723 9.76558V9.76125C5.17756 8.00092 5.81056 6.44325 6.87489 5.27558C7.94489 4.10192 9.44823 3.32225 11.2019 3.12625C11.5459 3.08794 11.8917 3.06813 12.2379 3.06692C13.9562 3.06325 15.5689 3.53758 16.7876 4.43925Z" fill="#EA5A47"/>
</svg>
