<svg width="24" height="24" viewBox="0 0 24 24" fill="none" xmlns="http://www.w3.org/2000/svg">
<path d="M21.4145 4.26117C21.4145 4.26117 20.3588 5.1122 18.8778 5.2654C18.8778 5.2654 16.5458 2.66086 13.2091 4.92508C11.7114 5.98037 11.5749 8.21027 11.8302 9.01063C11.8302 9.01063 7.30223 9.36811 3.35273 4.73755C3.35273 4.73755 1.58246 7.80171 4.51057 10.253C4.51057 10.253 3.64484 10.3895 2.82242 9.70844C2.82242 9.70844 2.43348 12.8747 5.97442 13.7601C5.97442 13.7601 5.73624 14.1686 4.30629 13.7601C4.30629 13.7601 4.54448 16.3475 7.91506 16.7221C7.91506 16.7221 6.09413 18.5945 2 18.3563C2 18.3563 8.76608 23.4289 16.0862 17.3006C20.1717 13.8279 20.0357 8.8231 19.9674 8.07422C19.9674 8.07422 21.5812 6.84855 22 6.06535C22 6.06535 20.7506 6.47391 19.7293 6.47391C19.7293 6.47391 21.091 5.75894 21.4145 4.26117Z" fill="#61B2E4"/>
</svg>
