<svg width="64" height="24" viewBox="0 0 64 24" fill="none" xmlns="http://www.w3.org/2000/svg">
<g clip-path="url(#clip0_4_5311)">
<path d="M9.94238 5.71063L4.9705 2.85538L0 5.71063V2.85538L4.97125 0L9.94312 2.85538V5.71063H9.94238Z" fill="#A435F0"/>
<path d="M0 8.11085H2.60413V14.4051C2.60413 16.0314 3.82488 16.824 4.97125 16.824C6.1275 16.824 7.339 16.0102 7.339 14.3833V8.11098H9.94312V14.555C9.94312 16.0531 9.46962 17.2091 8.52287 18.0017C7.57537 18.7938 6.39213 19.1795 4.94925 19.1795C3.50775 19.1795 2.32387 18.7945 1.399 18.0018C0.473375 17.2096 0 16.0966 0 14.619V8.11085ZM32.4567 15.9335C31.6685 16.6318 30.7705 16.9739 29.7465 16.9739C27.8784 16.9739 26.6257 15.9152 26.4842 14.2755H34.8981C34.8981 14.2755 34.9548 13.7463 34.9548 13.2492C34.9548 11.7075 34.4594 10.4227 33.4475 9.37378C32.4582 8.32486 31.1675 7.81092 29.5958 7.81092C27.9391 7.81092 26.5826 8.32486 25.5063 9.37378C24.4519 10.4227 23.9141 11.7927 23.9141 13.5061V13.5907C23.9141 15.2823 24.4519 16.6311 25.5063 17.6377C26.5608 18.6437 27.9598 19.1577 29.6601 19.1577C31.6374 19.1577 33.2104 18.3819 34.3908 17.0443L32.4567 15.9335ZM27.5075 10.6796C28.0877 10.2298 28.799 9.99467 29.595 9.99467C30.348 9.99467 30.9721 10.2298 31.5106 10.7015C32.0244 11.1309 32.3019 11.6583 32.3259 12.2643H26.5509C26.6343 11.6377 26.9527 11.1099 27.5082 10.6803L27.5075 10.6796ZM58.6707 20.6121C57.6143 23.0936 56.5089 23.9377 54.8141 23.9377H53.6394V21.6413H54.589C55.1721 21.6413 55.7143 21.423 56.2308 20.2376L56.7474 19.0506L52.292 8.11085H54.9394L58.1031 15.9898L61.3534 8.11085H64L58.6715 20.612L58.6707 20.6121ZM20.0807 3.97925V9.08802C19.2274 8.32772 17.8999 7.87508 16.6161 7.87508C15.0876 7.87508 13.7969 8.41005 12.7425 9.50124C11.7094 10.5719 11.1927 11.899 11.1927 13.5048C11.1927 15.1113 11.7094 16.4382 12.7425 17.53C13.7969 18.6007 15.0884 19.1366 16.6162 19.1366C18.3782 19.1366 19.492 18.4474 20.0807 17.9075V18.9008H22.6637V3.97987H20.0807V3.97925ZM19.3059 15.861C18.6818 16.4819 17.8857 16.8036 16.9601 16.8036C16.0345 16.8036 15.2816 16.4819 14.6574 15.861C14.0559 15.2401 13.7537 14.4481 13.7537 13.5061C13.7537 12.5635 14.0553 11.7715 14.6575 11.1506C15.2816 10.5298 16.0345 10.2087 16.96 10.2087C17.8857 10.2087 18.6818 10.5298 19.3059 11.1506C19.9513 11.7715 20.2754 12.5635 20.2754 13.5061C20.2754 14.4481 19.9513 15.2401 19.3059 15.861ZM48.2769 7.89684C46.3153 7.89684 45.2956 8.70638 44.5971 9.48644C44.3176 8.95633 43.5307 7.89684 41.6921 7.89684C40.1382 7.89684 39.2226 8.67827 38.7654 9.23438V8.11222H36.2051V18.9022H38.7654V12.6931C38.7654 11.2372 39.6698 10.1883 40.8741 10.1883C42.102 10.1883 42.8116 11.1091 42.8116 12.586V18.9014H45.3727V12.6924C45.3727 11.2154 46.2544 10.1877 47.524 10.1877C48.751 10.1877 49.4608 11.1084 49.4608 12.5847V18.9008H52.0436V12.2213C52.0436 9.40822 50.5236 7.89747 48.2769 7.89747V7.89684Z" fill="black"/>
</g>
<defs>
<clipPath id="clip0_4_5311">
<rect width="64" height="24" fill="white"/>
</clipPath>
</defs>
</svg>
