<svg width="24" height="24" viewBox="0 0 24 24" fill="none" xmlns="http://www.w3.org/2000/svg">
<path d="M21.2917 7.302C21.1821 6.88935 20.9661 6.51274 20.6651 6.20988C20.3642 5.90702 19.989 5.68854 19.577 5.57633C18.0647 5.16833 12.0004 5.16833 12.0004 5.16833C12.0004 5.16833 5.93604 5.16833 4.42371 5.57633C4.01177 5.68854 3.63655 5.90702 3.33562 6.20988C3.03469 6.51274 2.81862 6.88935 2.70904 7.302C2.30371 8.824 2.30371 12 2.30371 12C2.30371 12 2.30371 15.176 2.70904 16.6983C2.81862 17.111 3.03469 17.4876 3.33562 17.7905C3.63655 18.0933 4.01177 18.3118 4.42371 18.424C5.93604 18.8317 12.0004 18.8317 12.0004 18.8317C12.0004 18.8317 18.0647 18.8317 19.577 18.424C19.989 18.3118 20.3642 18.0933 20.6651 17.7905C20.9661 17.4876 21.1821 17.111 21.2917 16.6983C21.697 15.176 21.697 12 21.697 12C21.697 12 21.697 8.824 21.2917 7.302Z" fill="#EA5A47"/>
<path d="M10.0166 14.8833L15.0853 12L10.0166 9.11664V14.8833Z" fill="white"/>
</svg>
