<svg width="93" height="70" viewBox="0 0 93 70" fill="none" xmlns="http://www.w3.org/2000/svg">
<path d="M60.5121 69.9279C60.2241 69.8319 60.0081 69.7359 59.8641 69.6399C59.7201 69.5439 59.5041 69.5679 59.2161 69.7119C59.0721 69.6639 58.8801 69.5919 58.6401 69.4959C58.4001 69.4479 58.2081 69.3519 58.0641 69.2079L56.6961 68.1279C56.3601 67.8399 55.9761 67.5759 55.5441 67.3359C55.1601 67.0959 54.8241 66.8559 54.5361 66.6159L54.3201 66.2559C53.2641 66.3519 52.1361 66.1599 50.9361 65.6799C49.7361 65.1999 48.5361 64.3839 47.3361 63.2319C47.0481 63.1839 46.7841 62.9679 46.5441 62.5839C46.3521 62.2479 46.1601 61.9599 45.9681 61.7199C45.6321 61.6719 45.4161 61.5279 45.3201 61.2879C45.2241 61.0959 45.1281 60.8319 45.0321 60.4959C44.9841 60.4959 44.9361 60.4479 44.8881 60.3519C44.8881 60.3039 44.8881 60.2799 44.8881 60.2799L44.4561 59.9919V59.9199C44.2641 59.4399 44.1441 59.1039 44.0961 58.9119C44.0481 58.7679 43.8321 58.5279 43.4481 58.1919C43.3521 58.0959 43.2801 57.9279 43.2321 57.6879C43.1841 57.4479 43.1121 57.2559 43.0161 57.1119C42.3921 55.6719 41.8401 54.2319 41.3601 52.7919C40.8801 51.3519 40.6401 49.8159 40.6401 48.1839C40.6401 47.7039 40.7601 47.3199 41.0001 47.0319C41.2881 46.7919 41.6001 46.6719 41.9361 46.6719C42.5121 46.6719 42.9441 47.0319 43.2321 47.7519C43.3281 47.9439 43.4241 48.1599 43.5201 48.3999C43.6161 48.6399 43.6881 48.8799 43.7361 49.1199L43.8801 49.9119C43.9761 50.3439 44.2161 51.0399 44.6001 51.9999C44.9841 52.9599 45.4401 53.8959 45.9681 54.8079C46.4961 55.7679 47.0241 56.5119 47.5521 57.0399L48.7041 58.9119C48.9441 59.5359 49.3041 60.1599 49.7841 60.7839C50.2641 61.4079 50.6721 61.8399 51.0081 62.0799L53.6001 64.5999L54.3201 65.2479C54.9441 65.2479 55.5921 65.0799 56.2641 64.7439C56.9361 64.4559 57.5841 63.9519 58.2081 63.2319C59.4561 61.8879 60.5601 60.2079 61.5201 58.1919C62.4801 56.1759 63.3441 54.0399 64.1121 51.7839C64.8801 49.5759 65.5761 47.4639 66.2001 45.4479L66.6321 44.9439C66.7761 44.5599 66.8481 44.2239 66.8481 43.9359C66.8481 43.6959 66.8721 43.3359 66.9201 42.8559L67.3521 41.4879V41.1999L66.2721 39.4719L65.1921 38.1039L64.1121 37.0959C63.9681 36.7119 63.6081 36.2319 63.0321 35.6559C62.9841 35.0319 61.8081 33.4719 59.5041 30.9759C59.5521 30.9279 59.5761 30.8799 59.5761 30.8319C59.5761 30.6879 59.4081 30.4479 59.0721 30.1119C58.7361 29.7759 58.5441 29.5599 58.4961 29.4639L58.2801 28.9599H58.1361V28.8159C58.1361 28.3359 57.8001 27.9039 57.1281 27.5199C57.0801 27.0879 56.8641 26.8239 56.4801 26.7279C56.4801 26.7279 56.4321 26.5359 56.3361 26.1519C56.2881 26.1039 56.1921 26.0799 56.0481 26.0799C55.4241 25.4079 55.0401 25.0959 54.8961 25.1439C54.8481 24.9519 54.4161 24.2799 53.6001 23.1279C53.4081 23.2719 53.1681 23.6559 52.8801 24.2799C52.4481 24.4719 52.1841 24.9279 52.0881 25.6479L51.8001 25.7199C51.7041 25.8159 51.5601 25.9839 51.3681 26.2239C51.1761 26.4639 50.7921 27.0159 50.2161 27.8799C49.8801 28.0239 49.6161 28.4079 49.4241 29.0319C49.2801 29.0799 49.0641 29.2959 48.7761 29.6799L48.8481 29.8959C48.6561 30.1839 48.3921 30.5199 48.0561 30.9039C47.7201 31.2879 47.3361 31.7199 46.9041 32.1999L46.5441 32.9919H46.0401C45.9441 33.2319 45.8241 33.4719 45.6801 33.7119C45.5361 33.9519 45.3681 34.1919 45.1761 34.4319L44.9601 34.2879V34.7199L42.8721 36.9519L42.7281 36.8079C42.5841 36.9039 42.4641 37.1439 42.3681 37.5279L41.0721 38.4639L41.0001 38.3919C40.9521 38.3919 40.8081 38.5359 40.5681 38.8239V39.1119L39.4881 40.1919C39.2961 40.2879 39.1041 40.4319 38.9121 40.6239C38.1921 41.1519 37.7841 41.5359 37.6881 41.7759C37.5921 41.9679 37.3281 42.1839 36.8961 42.4239C36.7041 42.9039 36.0801 43.3599 35.0241 43.7919C34.9281 43.8879 34.8561 44.0079 34.8081 44.1519L34.6641 44.2239L34.2321 44.6559C33.9441 44.9439 33.7041 45.1599 33.5121 45.3039C33.3201 45.4959 33.2481 45.6399 33.2961 45.7359C33.2481 45.6879 33.1761 45.6639 33.0801 45.6639C32.6481 45.6639 32.3841 45.8799 32.2881 46.3119L32.2161 46.1679C31.8321 46.5519 31.2081 47.0079 30.3441 47.5359C29.0961 48.4479 28.4721 48.9039 28.4721 48.9039C28.3761 48.9039 28.3281 48.8799 28.3281 48.8319H28.1841C28.0401 48.8319 27.5841 49.0719 26.8161 49.5519C26.0481 50.0319 25.5921 50.2719 25.4481 50.2719H25.2321C25.1361 50.2239 25.0401 50.1999 24.9441 50.1999C25.1361 50.1999 25.0401 50.3439 24.6561 50.6319C23.8881 51.1119 23.3601 51.3519 23.0721 51.3519H22.8561C22.8081 51.3039 22.7121 51.2799 22.5681 51.2799C22.5201 51.2799 22.4721 51.3279 22.4241 51.4239C22.3761 51.5679 22.3281 51.6399 22.2801 51.6399C21.9441 51.6399 21.7281 51.6159 21.6321 51.5679C21.4401 51.8559 21.2481 51.9999 21.0561 51.9999H20.9121C20.9121 51.9519 20.8881 51.9279 20.8401 51.9279C20.7441 51.9279 20.6481 51.9999 20.5521 52.1439H20.4081C20.0241 52.1439 19.4241 52.2879 18.6081 52.5759C18.2721 52.5759 18.0321 52.6719 17.8881 52.8639L17.6721 52.7199C17.0481 53.1039 16.2801 53.2719 15.3681 53.2239C14.8401 53.2719 14.0001 53.4159 12.8481 53.6559C12.7041 53.6559 12.5121 53.6319 12.2721 53.5839C12.0801 53.5839 11.8401 53.5599 11.5521 53.5119C11.1681 53.5119 10.6401 53.4639 9.96813 53.3679C9.29613 53.2719 8.52813 53.1039 7.66413 52.8639C7.71213 52.9119 7.52013 52.9359 7.08813 52.9359C6.80013 52.9359 6.46413 52.7439 6.08013 52.3599C5.93613 52.3599 5.84013 52.3839 5.79213 52.4319H5.57613C5.48013 52.4319 5.24013 52.3119 4.85613 52.0719C4.52013 51.8799 4.30413 51.7839 4.20813 51.7839C4.11213 51.7839 4.04013 51.8079 3.99213 51.8559C3.84813 51.6639 3.58413 51.3279 3.20013 50.8479C3.20013 50.7039 3.10413 50.5119 2.91213 50.2719C2.76813 50.0319 2.36013 49.6719 1.68813 49.1919L1.47213 47.6079C1.42413 46.8879 1.18413 46.4559 0.752133 46.3119C0.608133 46.0719 0.536133 45.8799 0.536133 45.7359C0.536133 45.6399 0.560133 45.5199 0.608133 45.3759C0.656133 45.2799 0.680133 45.2079 0.680133 45.1599V44.3679C0.680133 44.2239 0.704133 44.0319 0.752133 43.7919C0.800133 43.5999 0.824133 43.4559 0.824133 43.3599C0.824133 43.2159 0.800133 43.0239 0.752133 42.7839C0.704133 42.5439 0.680133 42.3519 0.680133 42.2079C0.680133 42.0639 0.704133 41.8479 0.752133 41.5599C0.800133 41.2719 0.824133 41.0559 0.824133 40.9119V40.5519C0.776133 40.4079 0.752133 40.2879 0.752133 40.1919C0.752133 40.3359 0.992133 39.4239 1.47213 37.4559L1.68813 37.2399C1.88013 36.0879 2.19213 35.2959 2.62413 34.8639V34.6479C3.77613 33.3519 4.37613 32.3919 4.42413 31.7679C5.09613 30.9519 5.62413 30.3039 6.00813 29.8239C6.39213 29.2959 6.63213 28.9359 6.72813 28.7439L8.02413 27.5919C8.02413 27.4479 8.09613 27.2319 8.24013 26.9439L9.17613 26.0799C9.17613 26.0319 9.22413 25.9119 9.32013 25.7199C10.0881 25.1919 10.4001 24.9279 10.2561 24.9279C10.3041 24.9279 10.3281 24.9519 10.3281 24.9999H10.4001C10.4961 24.9999 10.7601 24.7359 11.1921 24.2079C11.6241 23.6319 11.8641 23.3439 11.9121 23.3439C12.0081 23.3439 12.0321 23.3679 11.9841 23.4159C11.9841 23.4639 12.0321 23.4879 12.1281 23.4879C12.1281 23.4879 12.2001 23.3919 12.3441 23.1999C12.5361 22.9599 12.8001 22.5999 13.1361 22.1199C13.2321 22.2159 13.4721 22.2879 13.8561 22.3359C13.8561 22.2399 14.1441 21.9519 14.7201 21.4719C15.0561 21.1359 15.1761 20.9679 15.0801 20.9679C15.1761 20.9679 15.2001 20.9919 15.1521 21.0399H15.2961C15.3441 21.0399 15.3681 20.9919 15.3681 20.8959C15.4161 20.7999 15.4881 20.7519 15.5841 20.7519H15.6561C15.6561 20.7999 15.6801 20.8239 15.7281 20.8239C15.9681 20.8239 16.2081 20.7039 16.4481 20.4639C16.7361 20.1759 16.8801 20.0319 16.8801 20.0319C17.1201 20.0319 17.2881 20.0559 17.3841 20.1039V20.5359L16.2321 21.5439L15.1521 21.9759C14.7201 22.4559 14.4801 22.6959 14.4321 22.6959H14.2881C14.3361 22.6479 14.3121 22.6239 14.2161 22.6239C14.1201 22.6239 13.7121 23.0079 12.9921 23.7759C12.8961 23.8239 12.7761 23.8959 12.6321 23.9919C12.5361 24.0879 12.3921 24.2079 12.2001 24.3519C12.1041 24.6879 11.7681 25.1439 11.1921 25.7199L11.1201 26.0079C10.6401 26.3439 9.92013 27.1359 8.96013 28.3839L8.67213 28.5279V28.6719C8.67213 28.8159 8.57613 28.9839 8.38413 29.1759C8.24013 29.2239 8.14413 29.2959 8.09613 29.3919C8.09613 29.4879 7.90413 29.8959 7.52013 30.6159L7.16013 30.9039C7.01613 31.0959 6.84813 31.3359 6.65613 31.6239C6.51213 31.8639 6.32013 32.1759 6.08013 32.5599C5.98413 32.7519 5.84013 33.0159 5.64813 33.3519C5.50413 33.6879 5.31213 34.0719 5.07213 34.5039C5.02413 34.5519 4.95213 34.6239 4.85613 34.7199C4.76013 34.8159 4.66413 34.9119 4.56813 35.0079C4.47213 35.5359 4.23213 36.0399 3.84813 36.5199C3.75213 36.6159 3.58413 36.8079 3.34413 37.0959C3.15213 37.3359 2.96013 37.9359 2.76813 38.8959L2.69613 38.9679L2.26413 40.3359C2.21613 40.5759 2.14413 40.8159 2.04813 41.0559C2.00013 41.2959 2.00013 41.5119 2.04813 41.7039C1.76013 41.9919 1.61613 42.7599 1.61613 44.0079C1.61613 44.1039 1.64013 44.1999 1.68813 44.2959C1.73613 44.3919 1.76013 44.4399 1.76013 44.4399C1.76013 44.4879 1.73613 44.5599 1.68813 44.6559C1.64013 44.7519 1.61613 44.8239 1.61613 44.8719C1.61613 44.9199 1.64013 44.9919 1.68813 45.0879C1.78413 45.2319 1.83213 45.3279 1.83213 45.3759V45.7359C1.78413 45.8799 1.76013 46.0239 1.76013 46.1679C1.76013 46.3599 1.88013 46.5999 2.12013 46.8879C2.40813 47.2239 2.52813 47.5599 2.48013 47.8959C2.72013 48.2799 3.05613 48.6639 3.48813 49.0479C3.92013 49.4319 4.42413 49.8159 5.00013 50.1999C5.67213 50.5839 6.03213 50.7759 6.08013 50.7759H6.15213C6.15213 50.7279 6.17613 50.7039 6.22413 50.7039C7.28013 51.4719 7.95213 51.8559 8.24013 51.8559C8.33613 51.8559 8.43213 51.8079 8.52813 51.7119H9.32013C9.51213 51.6159 9.60813 51.5679 9.60813 51.5679C9.75213 51.5679 9.99213 51.6159 10.3281 51.7119C10.6641 51.8559 10.9041 51.9279 11.0481 51.9279L11.2641 51.7839H11.7681C12.2961 51.7839 12.8481 51.7119 13.4241 51.5679C14.0481 51.4719 14.6961 51.3279 15.3681 51.1359L17.6721 50.5599L18.4641 50.4159C19.0401 50.4639 19.4481 50.3439 19.6881 50.0559C19.9761 49.8159 20.3601 49.6239 20.8401 49.4799C20.8881 49.4799 20.9361 49.5039 20.9841 49.5519H21.2001C21.3921 49.5519 21.6081 49.4799 21.8481 49.3359C22.1361 49.1919 22.4721 49.1199 22.8561 49.1199L24.3681 48.2559C24.4641 48.1599 24.5841 48.0399 24.7281 47.8959C24.9201 47.7519 25.1361 47.5839 25.3761 47.3919C25.5681 47.3919 25.8081 47.2959 26.0961 47.1039C26.4321 46.9599 26.8161 46.5999 27.2481 46.0239C27.4401 45.9759 27.7281 45.7839 28.1121 45.4479C28.5441 45.1119 28.9041 44.9439 29.1921 44.9439C29.2401 44.9439 29.2641 44.9679 29.2641 45.0159H29.4081C29.4561 45.0159 29.6961 44.8959 30.1281 44.6559C30.6081 44.4639 30.8721 44.3679 30.9201 44.3679C31.0641 44.3679 31.1601 44.3919 31.2081 44.4399C31.2561 44.2959 31.3041 44.1039 31.3521 43.8639C31.4481 43.6719 31.5921 43.4319 31.7841 43.1439C32.6001 42.4239 33.1281 42.0639 33.3681 42.0639C33.4161 42.0639 33.4401 42.0879 33.4401 42.1359H33.5121C33.7521 42.1359 34.7601 41.4159 36.5361 39.9759L39.7041 37.5279C39.8001 37.4799 39.9201 37.4079 40.0641 37.3119C40.2081 37.2159 40.3761 37.1199 40.5681 37.0239L41.7201 35.6559C41.9601 35.5599 42.2001 35.4399 42.4401 35.2959C42.6801 35.1039 42.8481 34.8879 42.9441 34.6479L43.2321 33.9279C43.2801 33.8799 43.3281 33.8319 43.3761 33.7839C43.4241 33.7359 43.4721 33.6879 43.5201 33.6399C44.0961 33.6399 44.4801 33.2799 44.6721 32.5599C44.8641 32.4639 45.0081 32.4159 45.1041 32.4159L45.5361 31.5519L45.7521 31.6959L46.5441 31.0479H46.6161C46.5681 31.0959 46.5921 31.1199 46.6881 31.1199C46.9281 30.8799 47.1441 30.6159 47.3361 30.3279C47.5281 30.0399 47.7201 29.7759 47.9121 29.5359C48.0081 29.4879 48.1281 29.3919 48.2721 29.2479C48.4161 29.0559 48.4401 28.9119 48.3441 28.8159H48.6321C50.6481 25.9839 51.6561 24.3999 51.6561 24.0639C51.7521 24.0159 51.8961 23.8959 52.0881 23.7039C52.2801 23.4639 52.5441 23.0319 52.8801 22.4079L45.0321 12.7599C44.6001 12.3759 44.1201 11.8239 43.5921 11.1039C43.4481 10.9119 43.1121 10.6479 42.5841 10.3119C42.3921 9.87991 41.9361 9.42391 41.2161 8.94391C40.4961 8.36791 40.1361 7.86391 40.1361 7.43191L39.2721 7.14391C39.1281 6.99991 39.0321 6.9039 38.9841 6.85591C38.9361 6.75991 38.8401 6.71191 38.6961 6.71191C38.5041 6.56791 38.2881 6.39991 38.0481 6.20791C37.8081 5.96791 37.5681 5.70391 37.3281 5.41591L37.2561 5.55991C36.7281 4.88791 35.8641 4.21591 34.6641 3.54391C34.6641 3.54391 34.6401 3.5679 34.5921 3.6159C34.5921 3.6159 34.5681 3.6159 34.5201 3.6159C34.3281 3.6159 34.0641 3.4959 33.7281 3.2559C33.3921 3.0159 33.1521 2.87191 33.0081 2.82391H32.8641C32.8641 2.87191 32.8401 2.89591 32.7921 2.89591C32.6961 2.89591 32.6001 2.84791 32.5041 2.75191C32.4561 2.65591 32.4081 2.6079 32.3601 2.6079C32.2641 2.6079 32.2161 2.63191 32.2161 2.67991L32.2881 2.75191C32.2401 2.70391 32.1441 2.65591 32.0001 2.6079C31.9041 2.55991 31.8081 2.48791 31.7121 2.39191C31.5681 2.53591 31.4721 2.6079 31.4241 2.6079C31.3761 2.6079 31.3041 2.5839 31.2081 2.53591C31.1121 2.43991 31.0161 2.39191 30.9201 2.39191C30.8721 2.39191 30.8001 2.43991 30.7041 2.53591C30.6081 2.5839 30.5361 2.6079 30.4881 2.6079H30.3441C30.2961 2.55991 30.2481 2.53591 30.2001 2.53591C29.7681 2.53591 29.1681 2.79991 28.4001 3.32791C27.6801 3.80791 27.2961 4.23991 27.2481 4.6239C27.1041 4.71991 26.9841 4.91191 26.8881 5.19991C26.6961 5.39191 26.5041 5.65591 26.3121 5.99191C26.1681 6.32791 26.0481 6.75991 25.9521 7.28791C25.9041 7.33591 25.8561 7.38391 25.8081 7.43191C25.7601 7.47991 25.7121 7.52791 25.6641 7.57591C25.5681 8.67991 25.4721 9.51991 25.3761 10.0959C25.3281 10.6239 25.3041 10.8639 25.3041 10.8159C25.3041 11.0559 25.3521 11.5599 25.4481 12.3279C25.5441 13.0959 25.6881 14.1279 25.8801 15.4239C25.8801 15.5199 25.9041 15.6639 25.9521 15.8559C26.0481 16.0479 26.0961 16.2159 26.0961 16.3599C26.0961 16.5039 26.0721 16.5999 26.0241 16.6479C26.1201 17.0799 26.3121 17.7759 26.6001 18.7359C26.8881 19.6479 27.1761 20.4159 27.4641 21.0399L27.8241 21.4719V21.7599C27.8241 21.9039 27.8721 22.0479 27.9681 22.1919C28.1121 22.3359 28.2321 22.4559 28.3281 22.5519C28.4241 22.7439 28.6401 23.1039 28.9761 23.6319L29.3361 24.5679C29.8161 25.2879 30.9681 26.6319 32.7921 28.5999L33.4401 29.0319L33.3681 29.3919C32.6961 29.1039 31.5201 28.0959 29.8401 26.3679C29.8881 26.3199 29.9121 26.2479 29.9121 26.1519C29.9121 25.6239 29.6721 25.4559 29.1921 25.6479C29.0001 25.2159 28.5441 24.4959 27.8241 23.4879C27.7281 23.2479 27.4401 22.7679 26.9601 22.0479C26.8641 21.4719 26.6001 20.9679 26.1681 20.5359C26.1681 20.4879 26.1681 20.4159 26.1681 20.3199C26.1681 20.2239 26.1921 20.1279 26.2401 20.0319C26.1921 20.0319 26.1441 20.0079 26.0961 19.9599L25.8081 20.1039C25.8081 19.8639 25.6881 19.6959 25.4481 19.5999C25.4961 19.5039 25.5441 19.4079 25.5921 19.3119C25.6401 19.1679 25.6641 19.0719 25.6641 19.0239C25.6641 18.8799 25.5681 18.7839 25.3761 18.7359C25.2801 18.2079 25.1601 17.8479 25.0161 17.6559C25.0641 17.6079 25.0881 17.5359 25.0881 17.4399C25.0881 17.3919 24.9201 16.9839 24.5841 16.2159C24.2961 15.3999 24.1521 14.5599 24.1521 13.6959C24.1521 13.5999 24.1041 13.4799 24.0081 13.3359C23.9601 13.1439 23.9361 12.9999 23.9361 12.9039C23.9361 12.7599 23.9601 12.5919 24.0081 12.3999C24.0561 12.1599 24.0801 11.9919 24.0801 11.8959C24.4161 11.7039 24.5841 11.4159 24.5841 11.0319C24.5841 10.8399 24.5361 10.6479 24.4401 10.4559C24.5361 10.1679 24.5841 9.59191 24.5841 8.72791V8.79991C24.6801 8.79991 24.7521 8.60791 24.8001 8.22391C24.8001 8.12791 24.8001 8.03191 24.8001 7.93591C24.8001 7.83991 24.8241 7.69591 24.8721 7.50391C25.4961 5.39191 26.0241 4.16791 26.4561 3.83191L27.5361 2.9679L27.7521 3.18391C27.8481 3.0399 28.1121 2.75191 28.5441 2.31991L29.2641 2.10391C29.8401 1.95991 30.0801 1.83991 29.9841 1.74391L30.1281 1.81591L30.2721 1.67191C30.3681 1.76791 30.4641 1.81591 30.5601 1.81591C30.6081 1.81591 30.8481 1.67191 31.2801 1.38391C31.7121 1.09591 32.0961 0.951904 32.4321 0.951904C32.6721 0.951904 32.9121 0.975905 33.1521 1.02391C33.4401 1.02391 33.6801 1.04791 33.8721 1.09591C33.9681 1.09591 34.1601 1.16791 34.4481 1.3119C34.7841 1.40791 35.0001 1.45591 35.0961 1.45591H35.1681C35.1681 1.40791 35.1921 1.38391 35.2401 1.38391C35.3361 1.38391 35.5041 1.47991 35.7441 1.67191C36.0321 1.81591 36.2241 1.88791 36.3201 1.88791C36.4161 1.88791 37.0641 2.15191 38.2641 2.67991C38.3121 2.67991 38.3841 2.75191 38.4801 2.89591C38.6241 3.03991 38.7441 3.11191 38.8401 3.11191H38.9121C38.9121 3.06391 38.9361 3.03991 38.9841 3.03991C39.0321 3.03991 39.0801 3.11191 39.1281 3.2559C39.5121 3.54391 40.0161 4.04791 40.6401 4.76791L40.8561 4.6239C41.0001 4.8159 41.3121 5.05591 41.7921 5.34391C42.0321 5.58391 42.3201 5.87191 42.6561 6.20791C42.9921 6.49591 43.3521 6.80791 43.7361 7.14391C43.8321 7.23991 43.9521 7.35991 44.0961 7.50391C44.2881 7.64791 44.4801 7.83991 44.6721 8.07991L44.8161 8.58391L46.5441 10.1679L47.1921 11.4639C47.3841 11.5599 47.5761 11.6799 47.7681 11.8239C48.0081 11.9679 48.2481 12.1599 48.4881 12.3999L48.6321 12.4719C48.7281 12.8079 48.9441 13.2159 49.2801 13.6959C49.5201 13.7919 49.9761 14.3439 50.6481 15.3519C50.6481 15.4479 51.0801 16.0479 51.9441 17.1519C52.0401 17.3919 52.2321 17.7039 52.5201 18.0879C52.8561 18.1359 53.0001 18.4479 52.9521 19.0239C53.1441 19.5039 53.4561 19.7439 53.8881 19.7439C53.9841 19.7439 54.0321 19.7679 54.0321 19.8159C54.0321 19.8639 54.0561 19.8879 54.1041 19.8879C54.1521 19.8879 54.3921 19.5519 54.8241 18.8799C54.9201 18.8319 55.0881 18.5439 55.3281 18.0159C55.5681 17.4399 55.6881 17.0799 55.6881 16.9359C55.6881 16.7439 55.5921 16.6479 55.4001 16.6479C55.2081 16.5999 55.0401 16.5519 54.8961 16.5039C55.5201 14.5839 55.8321 13.3359 55.8321 12.7599C55.8321 12.1359 56.0001 11.8239 56.3361 11.8239L56.5521 12.1119C56.6961 11.9199 56.8401 11.8239 56.9841 11.8239C57.0801 11.8239 57.1761 11.8719 57.2721 11.9679C57.4161 12.0639 57.5121 12.1119 57.5601 12.1119C57.6561 12.3999 57.7761 12.5919 57.9201 12.6879V14.0559C57.5841 14.5839 57.3681 15.0159 57.2721 15.3519C57.1761 15.6879 57.0321 16.1679 56.8401 16.7919C56.6001 17.0319 56.3841 17.2719 56.1921 17.5119C56.0001 17.7519 55.9521 18.2319 56.0481 18.9519L55.9761 18.8079C55.7841 18.8079 55.5441 19.1199 55.2561 19.7439C54.9681 20.3679 54.8241 20.7999 54.8241 21.0399C54.8721 20.9439 54.9921 21.2079 55.1841 21.8319C55.2801 22.2159 55.4721 22.5759 55.7601 22.9119C55.6641 23.1039 55.6161 23.2479 55.6161 23.3439C55.6161 23.4399 55.8081 23.7519 56.1921 24.2799L56.4081 24.1359L58.0641 25.7199V25.8639C58.0641 26.2479 58.1121 26.4879 58.2081 26.5839C58.6401 26.6799 58.9521 26.8719 59.1441 27.1599C59.3841 27.3999 59.6241 27.6639 59.8641 27.9519L59.7921 28.1679C59.7921 28.4559 60.0321 28.6959 60.5121 28.8879C60.6081 29.0319 60.6561 29.1519 60.6561 29.2479C60.7041 29.2959 60.8241 29.4159 61.0161 29.6079C61.0161 29.7039 61.0881 29.8479 61.2321 30.0399C61.4241 30.2319 61.6161 30.5199 61.8081 30.9039L62.2401 31.6239C62.9601 32.2959 63.7041 33.1119 64.4721 34.0719C64.4721 34.1679 64.4481 34.2639 64.4001 34.3599C64.4961 34.4079 64.7361 34.6719 65.1201 35.1519C65.5041 35.5839 65.7921 35.7759 65.9841 35.7279V36.0879C66.1281 36.4239 66.3921 36.8319 66.7761 37.3119C67.2081 37.7439 67.4481 37.9359 67.4961 37.8879C67.6401 38.0799 67.7841 38.2239 67.9281 38.3199C67.9281 38.4639 68.0001 38.5839 68.1441 38.6799C68.1921 38.5839 68.2641 38.4879 68.3601 38.3919C68.4561 38.2479 68.5281 38.1279 68.5761 38.0319L68.7201 37.8159H68.6481C68.4561 37.4799 68.3601 37.1919 68.3601 36.9519C68.3601 36.8559 68.3841 36.7359 68.4321 36.5919C68.5281 36.4479 68.5761 36.3279 68.5761 36.2319C68.6241 35.5599 68.6721 34.8639 68.7201 34.1439C68.7681 33.3759 69.0081 32.7759 69.4401 32.3439C69.4401 32.4879 69.4641 32.5839 69.5121 32.6319C69.5601 32.5359 69.6321 32.4639 69.7281 32.4159C69.8241 32.3199 69.9201 32.2239 70.0161 32.1279C69.9681 32.0319 69.9201 31.9359 69.8721 31.8399C69.8721 31.7439 69.8721 31.6479 69.8721 31.5519C69.8721 31.3119 69.9681 30.9759 70.1601 30.5439C70.3521 30.0639 70.4481 29.7279 70.4481 29.5359C70.5441 29.4399 70.6881 29.1279 70.8801 28.5999C71.2641 28.3599 71.4081 27.9519 71.3121 27.3759L71.8161 26.3679C71.7201 26.3199 71.5281 26.1519 71.2401 25.8639L70.5201 27.5919C70.3281 27.6399 70.1841 27.8559 70.0881 28.2399C70.0401 28.6239 69.9921 28.9839 69.9441 29.3199C69.7041 29.1279 69.5601 29.0079 69.5121 28.9599C69.6081 29.0559 69.8721 28.1439 70.3041 26.2239C70.4961 26.0319 70.6161 25.6959 70.6641 25.2159C70.7121 24.7359 70.7841 24.4239 70.8801 24.2799C71.0241 24.2799 71.1201 24.1839 71.1681 23.9919V23.4879C71.5041 22.7199 71.8881 22.3359 72.3201 22.3359V22.0479C72.2721 21.9999 72.2481 21.9519 72.2481 21.9039C72.2481 21.1359 72.6561 20.4879 73.4721 19.9599V19.4559C73.4721 19.2639 73.7601 18.9039 74.3361 18.3759C74.5761 17.6559 74.7201 17.3679 74.7681 17.5119L76.7841 14.9919L77.2161 13.9119L77.7201 13.2639C77.9601 12.9279 78.0561 12.6879 78.0081 12.5439H78.1521C78.2961 12.5439 78.4401 12.5199 78.5841 12.4719L79.4481 11.4639V11.2479C79.4481 11.0079 79.7601 10.6479 80.3841 10.1679C81.0561 9.63991 81.3921 9.20791 81.3921 8.87191C81.8241 8.67991 82.1361 8.43991 82.3281 8.15191V7.93591C82.3761 7.83991 82.4481 7.76791 82.5441 7.71991C82.6401 7.62391 82.7361 7.52791 82.8321 7.43191C82.9281 7.43191 83.4561 7.02391 84.4161 6.20791C86.0961 5.00791 87.0321 4.40791 87.2241 4.40791C87.2721 4.40791 87.3201 4.43191 87.3681 4.47991C87.4641 4.52791 87.5361 4.55191 87.5841 4.55191V4.47991C87.5841 4.43191 87.6801 4.33591 87.8721 4.19191C88.1121 3.99991 88.2081 3.83191 88.1601 3.68791H88.8081C89.1921 3.68791 89.4321 3.61591 89.5281 3.47191C89.6721 3.32791 89.8401 3.20791 90.0321 3.11191C90.0801 3.11191 90.1281 3.13591 90.1761 3.18391C90.2241 3.2319 90.2721 3.2559 90.3201 3.2559C90.5601 3.2559 90.7521 3.11191 90.8961 2.82391C91.0401 2.77591 91.1841 2.87191 91.3281 3.11191C91.5201 2.91991 91.5921 2.82391 91.5441 2.82391H91.6881C91.6881 2.87191 91.7121 2.89591 91.7601 2.89591C91.9521 2.89591 92.0961 2.77591 92.1921 2.53591C92.3361 2.63191 92.4321 2.79991 92.4801 3.03991C92.3841 3.23191 92.1441 3.37591 91.7601 3.47191C91.4241 3.5679 90.7761 3.9279 89.8161 4.55191C89.6241 4.5999 89.4321 4.7199 89.2401 4.9119C89.0961 5.05591 89.0001 5.12791 88.9521 5.12791C88.8561 5.12791 88.8081 5.10391 88.8081 5.05591C88.8561 5.00791 88.8321 4.98391 88.7361 4.98391L87.1521 6.2799C87.0561 6.32791 86.9361 6.35191 86.7921 6.35191L85.7121 7.35991C85.1841 7.88791 84.9441 8.24791 84.9921 8.43991L84.7761 8.29591C83.7201 9.11191 83.1681 9.80791 83.1201 10.3839C82.8321 10.4319 82.6881 10.5999 82.6881 10.8879C82.3041 11.1759 82.0401 11.4159 81.8961 11.6079C81.8001 11.7519 81.7041 11.9199 81.6081 12.1119C81.4161 12.3039 81.1761 12.5919 80.8881 12.9759C80.6481 13.3119 80.3601 13.7199 80.0241 14.1999L79.3041 14.9919L78.5121 16.4319C78.1761 16.5759 77.9841 16.7919 77.9361 17.0799C77.8881 17.3679 77.8401 17.6319 77.7921 17.8719C77.5521 18.1119 77.1681 18.6639 76.6401 19.5279C76.4961 19.5759 76.2081 20.1519 75.7761 21.2559C75.7281 21.3519 75.5841 21.6159 75.3441 22.0479L75.0561 22.7679C74.8161 23.0559 74.5761 23.6799 74.3361 24.6399C74.2881 24.6879 74.2401 24.7359 74.1921 24.7839C74.1441 24.8319 74.0961 24.8799 74.0481 24.9279V24.9999C74.0481 25.3839 73.9041 25.6239 73.6161 25.7199L73.1841 26.5839V27.1599C73.1841 27.3519 73.0641 27.6639 72.8241 28.0959C72.6321 28.4799 72.5121 28.7919 72.4641 29.0319C72.4641 29.2239 72.3921 29.5839 72.2481 30.1119C72.1041 30.5919 72.0321 30.9519 72.0321 31.1919C72.0321 31.4319 71.9361 31.6959 71.7441 31.9839V32.1279C71.7441 32.2719 71.6721 32.5359 71.5281 32.9199C71.5761 33.0159 71.6001 33.1359 71.6001 33.2799C71.6001 33.4239 71.6001 33.5439 71.6001 33.6399V34.5039C71.5521 34.6959 71.5281 34.8879 71.5281 35.0799C71.5281 35.2239 71.5281 35.3439 71.5281 35.4399C71.5281 35.3439 71.4561 35.5119 71.3121 35.9439L71.5281 36.3759C71.3361 36.4239 71.2161 36.4719 71.1681 36.5199C71.2641 36.7119 71.3361 36.8559 71.3841 36.9519C71.4321 37.0479 71.4561 37.0959 71.4561 37.0959C71.4561 37.2399 71.3841 37.4559 71.2401 37.7439C71.0961 38.0319 71.0241 38.2479 71.0241 38.3919C71.0241 38.4879 71.0721 38.6319 71.1681 38.8239C71.2641 38.9679 71.3121 39.0639 71.3121 39.1119C71.3121 39.2079 71.2641 39.3759 71.1681 39.6159C71.0721 39.8559 71.0241 40.0239 71.0241 40.1199C71.0241 40.3599 71.0481 40.7439 71.0961 41.2719C71.1441 41.7519 71.1921 42.0879 71.2401 42.2799C71.3361 42.4719 71.6961 42.8079 72.3201 43.2879C72.9921 43.8639 73.3281 44.1519 73.3281 44.1519C73.4241 44.1519 73.4721 44.1279 73.4721 44.0799C73.4721 44.0319 73.4961 44.0079 73.5441 44.0079C73.6881 44.0079 73.8081 44.1279 73.9041 44.3679C74.0001 44.6079 74.0481 44.7519 74.0481 44.7999C74.0481 44.8479 74.0961 44.8719 74.1921 44.8719C74.2401 44.8719 74.2641 44.8479 74.2641 44.7999H74.3361C74.4321 44.7999 74.4321 44.8479 74.3361 44.9439H74.4081C74.7441 44.9439 74.9361 44.9679 74.9841 45.0159C75.2241 44.6319 75.4161 44.3919 75.5601 44.2959C75.9921 44.3439 76.2081 44.7759 76.2081 45.5919C76.2081 45.8799 76.0401 46.2159 75.7041 46.5999C75.4161 46.9839 75.1281 47.3439 74.8401 47.6799C74.6481 47.6319 74.5041 47.5119 74.4081 47.3199C74.3121 47.4159 74.1681 47.4639 73.9761 47.4639C73.8801 47.4639 73.7361 47.4159 73.5441 47.3199C73.4001 47.2239 73.2801 47.1759 73.1841 47.1759C73.1361 47.1759 73.0881 47.1999 73.0401 47.2479C73.0401 47.2959 73.0161 47.3199 72.9681 47.3199L72.8241 47.2479C72.3441 47.0079 72.0321 46.8879 71.8881 46.8879C71.7921 46.9359 71.4081 46.6479 70.7361 46.0239L69.9441 45.2319C69.8961 44.7999 69.7281 44.3919 69.4401 44.0079C69.2001 44.5359 69.0081 44.9199 68.8641 45.1599C68.7201 45.5919 68.5281 45.8079 68.2881 45.8079C68.1921 45.8079 68.0721 45.7839 67.9281 45.7359C67.8321 45.6879 67.7361 45.6639 67.6401 45.6639C67.7361 45.9519 67.8321 46.1439 67.9281 46.2399C68.0241 46.3359 68.0961 46.5279 68.1441 46.8159C67.7601 47.9679 67.2801 49.3359 66.7041 50.9199C66.1281 52.5039 65.5281 53.7759 64.9041 54.7359C64.2321 54.9759 63.8961 55.3119 63.8961 55.7439C63.8961 55.8399 63.9441 56.0799 64.0401 56.4639C63.8481 56.8479 63.7521 57.1599 63.7521 57.3999L63.1041 58.5519C62.8641 58.7439 62.6241 58.9359 62.3841 59.1279C62.1921 59.3679 62.0961 59.7039 62.0961 60.1359L61.6641 60.9999C61.3281 61.1919 61.0401 61.3599 60.8001 61.5039C60.6081 61.6959 60.5121 62.0319 60.5121 62.5119C58.9761 64.4319 57.2481 65.6319 55.3281 66.1119L55.9761 66.6159C56.0721 66.6159 56.2881 66.7359 56.6241 66.9759C56.9601 67.2159 57.1521 67.3839 57.2001 67.4799C57.8721 67.9599 58.4001 68.2719 58.7841 68.4159C59.1681 68.6079 59.5281 68.7039 59.8641 68.7039C60.2961 68.7039 60.8961 68.6319 61.6641 68.4879C61.7601 68.4879 61.8321 68.4639 61.8801 68.4159C61.9761 68.4159 62.0481 68.4159 62.0961 68.4159C62.4321 68.4159 62.6001 68.4879 62.6001 68.6319C62.6481 68.8239 62.5761 69.0399 62.3841 69.2799C62.3361 69.3279 62.2401 69.4239 62.0961 69.5679C61.9521 69.7119 61.8561 69.7839 61.8081 69.7839C61.6161 69.7839 61.4001 69.8079 61.1601 69.8559C60.9681 69.9519 60.7521 69.9759 60.5121 69.9279ZM52.4481 64.8879L52.2321 64.6719C52.0401 64.3359 51.7281 64.0239 51.2961 63.7359C50.8641 63.4959 50.4561 63.1599 50.0721 62.7279C49.7361 62.3439 49.4241 61.9359 49.1361 61.5039C48.8481 61.1199 48.5601 60.7839 48.2721 60.4959C48.1761 60.3039 47.9841 59.9919 47.6961 59.5599C47.4081 59.1279 47.1201 58.7439 46.8321 58.4079C46.6401 58.1679 46.5201 57.9039 46.4721 57.6159C46.4241 57.3279 46.3521 57.1599 46.2561 57.1119C46.0641 56.8239 45.8481 56.5599 45.6081 56.3199C45.4161 56.0799 45.2241 55.7439 45.0321 55.3119C44.7921 54.9279 44.5281 54.4239 44.2401 53.7999C44.0001 53.2239 43.6881 52.6959 43.3041 52.2159L41.8641 50.4159C42.6321 53.3919 43.7361 56.0319 45.1761 58.3359C46.6161 60.6399 48.1521 62.3439 49.7841 63.4479C50.2641 63.7839 50.7201 64.0719 51.1521 64.3119C51.5841 64.5519 52.0161 64.7439 52.4481 64.8879Z" fill="#1E272E"/>
</svg>
